<?xml version="1.0" encoding="UTF-8" standalone="no"?>
<svg width="90px" height="76px" viewBox="0 0 90 76" version="1.1" xmlns="http://www.w3.org/2000/svg" xmlns:xlink="http://www.w3.org/1999/xlink">
    <!-- Generator: Sketch 3.8.3 (29802) - http://www.bohemiancoding.com/sketch -->
    <title>Combined Shape</title>
    <desc>Created with Sketch.</desc>
    <defs></defs>
    <g id="Page-1" stroke="none" stroke-width="1" fill="none" fill-rule="evenodd">
        <g id="noun_79068_cc" transform="translate(-5.000000, 0.000000)" fill="#000000">
            <g id="Group" transform="translate(5.000000, 0.000000)">
                <path d="M7.5,15.5 L82.5,15.5 C86.643,15.5 90,12.142 90,8 C90,3.858 86.643,0.5 82.5,0.5 L7.5,0.5 C3.358,0.5 0,3.858 0,8 C0,12.142 3.358,15.5 7.5,15.5 Z M82.5,30.5 L7.5,30.5 C3.358,30.5 0,33.858 0,38 C0,42.143 3.358,45.5 7.5,45.5 L82.5,45.5 C86.643,45.5 90,42.143 90,38 C90,33.858 86.643,30.5 82.5,30.5 Z M82.5,60.5 L7.5,60.5 C3.358,60.5 0,63.857 0,68 C0,72.143 3.358,75.5 7.5,75.5 L82.5,75.5 C86.643,75.5 90,72.143 90,68 C90,63.857 86.643,60.5 82.5,60.5 Z" id="Combined-Shape"></path>
            </g>
        </g>
    </g>
</svg>