<?xml version="1.0" encoding="UTF-8" standalone="no"?>
<svg width="72px" height="74px" viewBox="0 0 72 74" version="1.1" xmlns="http://www.w3.org/2000/svg" xmlns:xlink="http://www.w3.org/1999/xlink">
    <!-- Generator: Sketch 3.8.3 (29802) - http://www.bohemiancoding.com/sketch -->
    <title>arrow-r</title>
    <desc>Created with Sketch.</desc>
    <defs></defs>
    <g id="Page-1" stroke="none" stroke-width="1" fill="none" fill-rule="evenodd">
        <path d="M67.006,31.807 L15.697,31.75 L35.33,8.198 C37.09,6.08 36.801,2.924 34.687,1.162 C33.791,0.413 32.654,0 31.488,0 C29.998,0 28.597,0.657 27.646,1.799 L1.156,33.574 C0.41,34.471 0,35.608 0,36.774 C0,37.944 0.412,39.082 1.158,39.975 L27.644,71.746 C28.6,72.892 30,73.548 31.49,73.548 C32.656,73.548 33.793,73.138 34.687,72.392 C36.804,70.624 37.093,67.466 35.328,65.349 L15.658,41.752 L66.996,41.808 C69.75,41.808 71.994,39.569 72,36.814 C72.004,34.059 69.766,31.812 67.006,31.807 L67.006,31.807 Z" id="arrow-r" fill="#000000" transform="translate(36.000003, 36.774000) scale(-1, 1) translate(-36.000003, -36.774000) "></path>
    </g>
</svg>