<?xml version="1.0" encoding="UTF-8" standalone="no"?>
<svg width="165px" height="180px" viewBox="0 0 165 180" version="1.1" xmlns="http://www.w3.org/2000/svg" xmlns:xlink="http://www.w3.org/1999/xlink">
    <!-- Generator: Sketch 3.8.3 (29802) - http://www.bohemiancoding.com/sketch -->
    <title>bgs-logo</title>
    <desc>Created with Sketch.</desc>
    <defs></defs>
    <g id="Page-1" stroke="none" stroke-width="1" fill="none" fill-rule="evenodd">
        <g id="bgs-logo">
            <g id="Page-1">
                <g id="Dashboard-Menu-V4-D">
                    <g id="HEADER">
                        <g id="Logo">
                            <path d="M75.5791169,0 L75.5791169,85.922765 L15.0790306,25.1629007 C31.8981813,10.0433532 53.0269189,1.24784727 75.5791169,0" id="Fill-3" fill="#41474E"></path>
                            <path d="M87.4583772,15.1437775 C105.700988,16.376481 122.797593,23.5637178 136.432052,35.8332063 L87.4583772,85.0232242 L87.4583772,15.1437775" id="Fill-4" fill="#51B047"></path>
                            <path d="M0,94.81822 C1.01934247,76.46699 8.03410748,59.2545726 20.0611422,45.4313325 L69.264019,94.81822 L0,94.81822" id="Fill-5" fill="#51B047"></path>
                            <path d="M27.142255,159.194417 L77.0900359,109.035198 L77.0900359,179.986825 C58.4764805,178.95099 41.0240105,171.700149 27.142255,159.194417" id="Fill-6" fill="#51B047"></path>
                            <path d="M164.141279,102.977687 C163.109874,121.66208 155.880986,139.18343 143.452849,153.139935 L93.4899895,102.977687 L164.141279,102.977687" id="Fill-7" fill="#51B047"></path>
                            <path d="M164.141279,92.5557391 L93.4899895,92.5557391 L143.452849,42.402577 C155.880986,56.3530248 163.109874,73.8743754 164.141279,92.5557391" id="Fill-8" fill="#51B047"></path>
                            <path d="M0,102.977687 L70.6362108,102.977687 L20.6944616,153.139935 C8.24521393,139.18343 1.02537408,121.66208 0,102.977687" id="Fill-9" fill="#51B047"></path>
                            <path d="M137.400126,159.194417 C123.518371,171.700149 106.08098,178.95099 87.4583772,179.986825 L87.4583772,109.035198 L137.400126,159.194417" id="Fill-11" fill="#51B047"></path>
                        </g>
                    </g>
                </g>
            </g>
        </g>
    </g>
</svg>