<?xml version="1.0" encoding="UTF-8" standalone="no"?>
<svg width="165px" height="181px" viewBox="0 0 165 181" version="1.1" xmlns="http://www.w3.org/2000/svg" xmlns:xlink="http://www.w3.org/1999/xlink">
    <!-- Generator: Sketch 3.8.3 (29802) - http://www.bohemiancoding.com/sketch -->
    <title>calendar</title>
    <desc>Created with Sketch.</desc>
    <defs></defs>
    <g id="Page-1" stroke="none" stroke-width="1" fill="none" fill-rule="evenodd">
        <g id="calendar">
            <g id="Page-1">
                <g id="calendar">
                    <g id="Page-1">
                        <g id="Calendar">
                            <g id="Group">
                                <path d="M5.36779324,144.569979 C5.36779324,150.897918 10.49285,156.023857 16.8167395,156.023857 L78.0933808,156.023857 C85.5544702,156.023857 66.7287594,140.71893 78.8753655,126.255352 C81.602125,123.008462 79.499068,117.371556 82.4209132,111.002867 C84.9149581,105.566647 92.1654347,99.293955 97.2101437,96.8412063 C110.764437,90.2510782 132.763419,96.6544017 132.763419,91.9804348 L132.763419,31.4936392 C132.763419,25.1657005 127.638363,20.0397614 121.314473,20.0397614 L16.8167395,20.0397614 C10.495023,20.0397614 5.36779324,25.1681434 5.36779324,31.4936392 L5.36779324,144.569979 L5.36779324,144.569979 Z M16.8167395,14.6719682 L121.314473,14.6719682 C130.602102,14.6719682 138.131213,22.2003388 138.131213,31.4936392 L138.131213,95.9116516 C138.131213,95.9116516 107.285332,91.06775 89.6458931,104.731028 C84.6844576,108.574091 79.3962709,115.732948 78.4661139,124.422099 C77.806036,130.58828 81.5656026,138.851497 79.2511447,141.319945 C73.6506422,147.293072 86.5647097,161.39165 83.4615304,161.39165 L16.8167395,161.39165 C7.52911071,161.39165 0,153.86328 0,144.569979 L0,31.4936392 L16.8167395,14.6719682 Z" id="Rectangle-3" fill="#979797"></path>
                                <rect id="Rectangle-3" fill="#E94B35" x="0" y="14.6719682" width="138.131213" height="46.5208748" rx="23.2604374"></rect>
                                <circle id="Oval-1" fill="#C23824" cx="23.0815109" cy="34.8906561" r="11.2723658"></circle>
                                <circle id="Oval-1" fill="#C23824" cx="115.407555" cy="34.8906561" r="11.2723658"></circle>
                                <rect id="Rectangle-1" fill="#BDC3C7" x="15.0298211" y="0" width="16.1033797" height="39.3638171" rx="8.05168986"></rect>
                                <rect id="Rectangle-1" fill="#BDC3C7" x="106.998012" y="0" width="16.1033797" height="39.3638171" rx="8.05168986"></rect>
                                <rect id="Rectangle-5" fill="#CCD1D4" x="12.166998" y="77.2962227" width="14.3141153" height="14.3141153"></rect>
                                <rect id="Rectangle-5" fill="#CCD1D4" x="12.166998" y="99.8409543" width="14.3141153" height="14.3141153"></rect>
                                <rect id="Rectangle-5" fill="#CCD1D4" x="12.166998" y="123.101392" width="14.3141153" height="14.3141153"></rect>
                                <rect id="Rectangle-5" fill="#CCD1D4" x="37.2166998" y="77.2962227" width="14.3141153" height="14.3141153"></rect>
                                <rect id="Rectangle-5" fill="#CCD1D4" x="37.2166998" y="99.8409543" width="14.3141153" height="14.3141153"></rect>
                                <rect id="Rectangle-5" fill="#CCD1D4" x="37.2166998" y="123.101392" width="14.3141153" height="14.3141153"></rect>
                                <rect id="Rectangle-5" fill="#CCD1D4" x="62.2664016" y="77.2962227" width="14.3141153" height="14.3141153"></rect>
                                <rect id="Rectangle-5" fill="#CCD1D4" x="62.2664016" y="99.8409543" width="14.3141153" height="14.3141153"></rect>
                                <rect id="Rectangle-5" fill="#CCD1D4" x="62.2664016" y="123.101392" width="14.3141153" height="14.3141153"></rect>
                                <rect id="Rectangle-5" fill="#CCD1D4" x="87.3161034" y="77.2962227" width="14.3141153" height="14.3141153"></rect>
                                <rect id="Rectangle-5" fill="#CCD1D4" x="112.365805" y="77.2962227" width="14.3141153" height="14.3141153"></rect>
                            </g>
                            <circle id="Mask" stroke="#7F8C8D" stroke-width="9" cx="118.091451" cy="134.194831" r="41.8687873"></circle>
                            <g id="Group-2" transform="translate(112.286282, 102.389662)" fill="#C23824">
                                <path d="M1.25622294,27.8634911 L4.62117909,0.543364811 L7.62297109,26.7663979 C8.41296354,27.2303684 9.06451881,27.904696 9.50069352,28.7124373 L26.9059084,31.0279573 L9.12835869,34.0542854 C8.21641105,35.2945177 6.74693256,36.0994036 5.08946322,36.0994036 C2.32254974,36.0994036 0.0795228628,33.8563767 0.0795228628,31.0894632 C0.0795228628,29.8606021 0.521957137,28.7350775 1.25622294,27.8634911 L1.25622294,27.8634911 Z" id="Combined-Shape"></path>
                            </g>
                        </g>
                    </g>
                </g>
            </g>
        </g>
    </g>
</svg>