<?xml version="1.0" encoding="UTF-8" standalone="no"?>
<svg width="184px" height="360px" viewBox="0 0 184 360" version="1.1" xmlns="http://www.w3.org/2000/svg" xmlns:xlink="http://www.w3.org/1999/xlink">
    <!-- Generator: Sketch 3.8.3 (29802) - http://www.bohemiancoding.com/sketch -->
    <title>ff-logo</title>
    <desc>Created with Sketch.</desc>
    <defs></defs>
    <g id="Page-1" stroke="none" stroke-width="1" fill="none" fill-rule="evenodd">
        <g id="ff-logo">
            <g id="Page-1">
                <g id="ff-logo">
                    <path d="M134.519117,180.784041 L154.77095,199.856805 C173.173888,216.927281 183.796226,241.186888 183.796226,266.266816 L183.796226,270.100897 C183.796226,319.817279 142.970772,360 92.8981132,360 C66.6143703,360 42.8807506,348.822999 26.2609402,330.958916 L67.68577,293.190922 C73.9832551,299.860657 82.9611698,304.042601 92.8981132,304.042601 C111.772149,304.042601 127.346408,288.512497 127.346408,269.717489 L127.346408,265.883408 C127.346408,256.124712 123.398321,247.045754 116.366844,240.643054 L95.2712287,220.973209 L134.519117,180.784041 L134.519117,180.784041 L134.519117,180.784041 Z M142.22755,172.890737 L147.11472,168.34231 L146.019531,169.007813 L142.22755,172.890737 L142.22755,172.890737 L142.22755,172.890737 Z M159.486916,27.7979787 C141.804064,9.88001494 118.772622,1.47792889e-12 94.0516077,1.47792889e-12 L92.8981132,1.47792889e-12 C42.6884752,1.47792889e-12 2,40.704848 2,90.6659193 L2,94.5 C2,119.579928 12.6223387,143.839535 31.0252764,160.910012 L51.347494,179.767349 L92.3065843,141.473774 L69.4323032,120.126487 C62.397905,113.721062 58.4498184,104.642104 58.4498184,94.8834081 L58.4498184,91.0493274 C58.4498184,72.2543188 74.0240774,56.7242152 92.8981132,56.7242152 L94.0516077,56.7242152 C103.657516,56.7242152 112.418308,60.4232229 119.085512,67.3737195 C119.286787,67.5844598 119.485278,67.7973216 119.680958,68.0122373 L159.486918,27.7979768 L159.486916,27.7979787 L159.486916,27.7979787 Z" id="Combined-Shape" fill="#00C0E3"></path>
                    <path d="M153.935385,162.13303 C171.286569,146.097113 181.649168,123.633592 182.936761,99.6666739 L182.949721,96.1165919 L173.949721,96.1165919 L182.944345,96.4276332 C183.419933,82.6746754 180.840709,69.2021175 175.526865,56.8865181 L29.0241344,201.091048 C10.6223387,218.160465 0,242.420072 0,267.5 L0,271.334081 C0,284.673133 2.89452154,297.33715 8.08758442,308.739785 L153.935385,162.13303 Z" id="Combined-Shape" fill="#FFD900"></path>
                </g>
            </g>
        </g>
    </g>
</svg>