<?xml version="1.0" encoding="UTF-8" standalone="no"?>
<svg width="167px" height="108px" viewBox="0 0 167 108" version="1.1" xmlns="http://www.w3.org/2000/svg" xmlns:xlink="http://www.w3.org/1999/xlink">
    <!-- Generator: Sketch 3.8.3 (29802) - http://www.bohemiancoding.com/sketch -->
    <title>lifewallet-logo</title>
    <desc>Created with Sketch.</desc>
    <defs></defs>
    <g id="Page-1" stroke="none" stroke-width="1" fill="none" fill-rule="evenodd">
        <g id="lifewallet-logo">
            <g id="Layer_1_1_">
                <g id="Group">
                    <path d="M52.5,59.6 L32.2,30.1 C26.7,22.2 15.9,20.3 8,25.7 C0.1,31.2 -1.8,42 3.6,49.9 L37.9,99.9 C41.2,104.7 46.5,107.3 51.9,107.4 L52.3,107.4 L52.7,107.4 C58.1,107.3 63.4,104.7 66.7,99.9 L83.4,76 L62.6,45 L52.5,59.6 L52.5,59.6 Z" id="Shape" fill="#70A3DF"></path>
                    <path d="M79.9,8.1 C74.4,0.2 63.6,-1.7 55.7,3.7 C47.8,9.2 45.9,20 51.3,27.9 L62.7,45 L84.6,15 L79.9,8.1 L79.9,8.1 Z" id="Shape" fill="#9FC2E9"></path>
                    <path d="M113.7,3.7 C105.8,-1.8 95,0.2 89.5,8.1 L84.7,15 L105.2,46.3 L118.1,27.9 C123.6,20 121.6,9.2 113.7,3.7 L113.7,3.7 Z" id="Shape" fill="#9FC2E9"></path>
                    <polygon id="Shape" fill="#CFDDE4" points="62.7 45 83.5 76 105.2 46.3 84.7 14.9"></polygon>
                    <path d="M158.9,25.7 C151,20.2 140.2,22.2 134.7,30.1 L114.4,59.6 L105.1,46.3 L83.5,76 L83.5,76 L83.5,76 L100.2,99.9 C103.5,104.7 108.8,107.3 114.2,107.4 L114.6,107.4 L115,107.4 C120.4,107.3 125.7,104.7 129,99.9 L163.3,49.9 C168.8,42 166.8,31.2 158.9,25.7 L158.9,25.7 Z" id="Shape" fill="#70A3DF"></path>
                </g>
                <path d="M52.1,59.8 L31.8,30.3 C26.3,22.4 15.5,20.5 7.6,25.9 C-0.3,31.4 -2.2,42.2 3.2,50.1 L37.5,100 C40.8,104.8 46.1,107.4 51.5,107.4 L51.9,107.4 L52.3,107.4 C57.7,107.3 63,104.7 66.3,100 L83,76.1 L62.2,45.1 L52.1,59.8 L52.1,59.8 Z" id="Shape" fill="#0072CE"></path>
                <polygon id="Shape" fill="#BEDCF5" points="62.3 45.2 83 76.2 104.7 46.5 84.2 15.2"></polygon>
                <g id="Group" transform="translate(47.000000, 0.000000)" fill="#64A4DB" opacity="0.85">
                    <path d="M8.2,3.9 C0.3,9.4 -1.6,20.2 3.8,28.1 L15.2,45.1 L37.1,15.1 L32.3,8.2 C26.9,0.4 16.1,-1.5 8.2,3.9 L8.2,3.9 Z" id="Shape"></path>
                    <path d="M66.2,3.9 C58.3,-1.6 47.5,0.4 42,8.3 L37.2,15.2 L57.7,46.5 L57.7,46.5 L70.6,28.2 C76,20.3 74.1,9.4 66.2,3.9 L66.2,3.9 Z" id="Shape"></path>
                </g>
                <path d="M158.4,25.9 C150.5,20.4 139.7,22.4 134.2,30.3 L114,59.8 L104.7,46.5 L83,76.2 L83,76.2 L83,76.2 L99.7,100.1 C103,104.9 108.3,107.5 113.7,107.5 L114.1,107.5 L114.5,107.5 C119.9,107.4 125.2,104.8 128.5,100.1 L162.8,50.2 C168.2,42.2 166.3,31.4 158.4,25.9 L158.4,25.9 Z" id="Shape" fill="#0072CE"></path>
            </g>
        </g>
    </g>
</svg>