<?xml version="1.0" encoding="UTF-8" standalone="no"?>
<svg width="237px" height="172px" viewBox="0 0 237 172" version="1.1" xmlns="http://www.w3.org/2000/svg" xmlns:xlink="http://www.w3.org/1999/xlink">
    <!-- Generator: Sketch 3.8.3 (29802) - http://www.bohemiancoding.com/sketch -->
    <title>drawing</title>
    <desc>Created with Sketch.</desc>
    <defs>
        <linearGradient x1="22.3521884%" y1="65.6260835%" x2="93.5452075%" y2="41.5498488%" id="linearGradient-1">
            <stop stop-color="#C7C7D1" offset="0%"></stop>
            <stop stop-color="#C7C7D1" offset="0.882149%"></stop>
            <stop stop-color="#0A396D" offset="100%"></stop>
        </linearGradient>
        <linearGradient x1="51.6161091%" y1="81.5852633%" x2="21.6290711%" y2="21.767228%" id="linearGradient-2">
            <stop stop-color="#4B2582" offset="0%"></stop>
            <stop stop-color="#4B2582" offset="1.22699%"></stop>
            <stop stop-color="#4B2582" offset="8.865919%"></stop>
            <stop stop-color="#7F8AAE" offset="31.9018%"></stop>
            <stop stop-color="#7F8AAE" offset="41.488178%"></stop>
            <stop stop-color="#0A396D" offset="86.5031%"></stop>
            <stop stop-color="#0A396D" offset="100%"></stop>
        </linearGradient>
    </defs>
    <g id="Page-1" stroke="none" stroke-width="1" fill="none" fill-rule="evenodd">
        <g id="drawing" transform="translate(-1.000000, 0.000000)">
            <g id="layer1">
                <g id="g114" transform="translate(53.630568, 36.069871) scale(1, -1) translate(-53.630568, -36.069871) translate(0.130568, 0.069871)" fill="url(#linearGradient-1)">
                    <g id="g116" transform="translate(-0.000000, 0.000000)">
                        <g id="g122" transform="translate(0.000000, 0.000000)">
                            <g id="g124" transform="translate(0.000000, 0.000000)">
                                <path d="M1.25982353,70.6639286 L1.13170588,70.6852381 C1.1495,70.6816865 1.16729412,70.6745833 1.18864706,70.6639286 L1.18864706,70.6639286 L1.089,70.6639286 L1.02494118,70.6639286 C1.02494118,70.6639286 1.06764706,70.6639286 1.17441176,70.6461706 L1.17441176,70.6461706 L0.992911765,70.6461706 C0.992911765,70.6461706 67.2866765,53.0622619 105.953294,0.718968254 L105.953294,0.718968254 C111.569118,43.3025 57.4536471,66.6364286 53.4570882,68.2666071 L53.4570882,68.2666071 C53.3325294,68.2985714 53.2008529,68.3305357 53.0762941,68.3482937 L53.0762941,68.3482937 C41.2432059,70.1809127 29.0898235,71.1966667 16.7193529,71.1966667 L16.7193529,71.1966667 C11.6017647,71.1966667 6.44858824,71.0261905 1.25982353,70.6639286 L1.25982353,70.6639286 Z M1.13170588,70.6852381 C1.08544118,70.6994444 1.05341176,70.6994444 1.05341176,70.6994444 L1.05341176,70.6994444 L1.13170588,70.6852381 L1.13170588,70.6852381 Z" id="path134"></path>
                            </g>
                        </g>
                    </g>
                </g>
                <g id="g136" transform="translate(144.954097, 88.014315) scale(1, -1) translate(-144.954097, -88.014315) translate(51.954097, 3.514315)" fill="url(#linearGradient-2)">
                    <g id="g138" transform="translate(-0.000000, 0.000000)">
                        <g id="g144" transform="translate(-0.000000, 0.000000)">
                            <g id="g146" transform="translate(-0.000000, 0.000000)">
                                <path d="M1.42714706,168.792738 C1.42714706,168.792738 1.49120588,168.767877 1.63355882,168.711052 L1.63355882,168.711052 C5.63011765,167.080873 59.7455882,143.746944 54.1297647,101.163413 L54.1297647,101.163413 C54.0265588,100.342996 53.9055588,99.508373 53.7454118,98.6773016 L53.7454118,98.6773016 C45.19,51.9774802 0.551676471,0.735178571 0.551676471,0.735178571 L0.551676471,0.735178571 C0.551676471,0.735178571 122.711853,49.0864881 185.329353,97.5585516 L185.329353,97.5585516 C185.329353,97.5585516 105.095676,152.863869 1.37732353,168.810496 L1.37732353,168.810496 L1.42714706,168.792738 L1.42714706,168.792738 Z" id="path164"></path>
                            </g>
                        </g>
                    </g>
                </g>
            </g>
        </g>
    </g>
</svg>