<?xml version="1.0" encoding="UTF-8" standalone="no"?>
<svg width="297px" height="276px" viewBox="0 0 297 276" version="1.1" xmlns="http://www.w3.org/2000/svg" xmlns:xlink="http://www.w3.org/1999/xlink">
    <!-- Generator: Sketch 3.8.3 (29802) - http://www.bohemiancoding.com/sketch -->
    <title>Combined Shape</title>
    <desc>Created with Sketch.</desc>
    <defs></defs>
    <g id="Page-1" stroke="none" stroke-width="1" fill="none" fill-rule="evenodd">
        <path d="M75.3744684,18 L221.739849,18 C220.785369,15.9723704 220.207031,14.8242188 220.207031,14.8242188 C220.207031,14.8242188 210.722656,-14.0703125 229.84375,10.7890625 C231.330976,12.7226085 232.822267,15.1560757 234.307993,18 L289,18 L289,152.998906 C289.0044,152.997979 289.006609,152.997515 289.006609,152.997515 C289.006609,152.997515 296.93683,152.997515 296.677363,158.197969 C296.493937,161.874346 291.759345,162.769507 289,162.978434 L289,276 L7,276 L7,162.863864 C4.24268276,162.502334 0.597457428,161.414908 0.436954402,158.197969 C0.238555849,154.221497 4.82844938,153.285592 7,153.065317 L7,18 L62.8063243,18 C64.2920502,15.1560757 65.783341,12.7226085 67.2705672,10.7890625 C86.3916609,-14.0703125 76.9072859,14.8242188 76.9072859,14.8242188 C76.9072859,14.8242188 76.3289486,15.9723704 75.3744684,18 Z M66.9627075,38 L230.15161,38 C230.735495,39.5693975 231.316931,41.1829489 231.886993,42.8287983 C238.661231,62.3869554 245.001056,87.3326045 247.636719,106.027346 C249.795193,121.337386 251.583597,142.221889 251.698195,162.301452 C246.036756,163.878202 239.988205,165.638634 233.743223,167.569735 C230.952836,168.43259 228.124543,169.330436 225.270054,170.258406 C216.458837,153.32163 206.559642,135.348884 198.577357,123.636548 C218.564826,109.839731 233.743223,100.998804 233.743223,100.998804 C233.743223,100.998804 241.276655,99.8662891 237.509939,95.3686695 C233.743223,90.8710499 229.526152,95.3686695 229.526152,95.3686695 C229.526152,95.3686695 210.863166,105.28268 193.128441,116.027907 C182.547775,101.775599 167.488602,83.8373279 154.806659,69.1660686 C161.706741,60.2761228 166.458067,54.393568 166.458067,54.393568 C166.458067,54.393568 178.135771,45.9353657 174.148482,42.8287983 C170.161192,39.7222309 166.458067,41.8046875 166.458067,41.8046875 C166.458067,41.8046875 158.900479,50.1418162 148.557159,61.9765383 C138.213838,50.1418162 130.65625,41.8046875 130.65625,41.8046875 C130.65625,41.8046875 126.953125,39.7222309 122.965836,42.8287983 C118.978546,45.9353657 130.65625,54.393568 130.65625,54.393568 C130.65625,54.393568 135.407576,60.2761228 142.307658,69.1660686 C129.625716,83.8373269 114.566545,101.775596 103.985876,116.027907 C86.251151,105.28268 67.5881653,95.3686695 67.5881653,95.3686695 C67.5881653,95.3686695 63.3710937,90.8710499 59.6043777,95.3686695 C55.8376617,99.8662891 63.3710937,100.998804 63.3710937,100.998804 C63.3710937,100.998804 78.549492,109.839731 98.5369569,123.636553 C90.5546734,135.348888 80.6554805,153.32163 71.8442597,170.258413 C68.989773,169.330436 66.1614802,168.43259 63.3710937,167.569735 C57.1261121,165.638634 51.0775612,163.878202 45.4161224,162.301452 C45.5307204,142.221889 47.3191246,121.337386 49.4775984,106.027346 C52.1132615,87.3326045 58.4530858,62.3869554 65.2273238,42.8287983 C65.7973864,41.1829489 66.3788218,39.5693975 66.9627075,38 Z M54.4787157,38 L28,38 L28,142.925987 L28.3565047,143.144531 C28.3565047,143.144531 40.2356592,78.6285546 54.4787157,38 Z M86.7741795,175.299069 C93.1271588,177.520087 99.5088135,179.84472 105.797293,182.222341 C112.884204,175.838861 120.353426,169.282948 127.802656,163.033724 C131.357991,160.051122 135.051005,157.117077 138.768009,154.261852 C133.548367,149.804785 128.248553,145.456137 122.965836,141.397615 C118.725089,138.139602 114.515453,135.008877 110.409715,132.03271 C103.399833,143.922019 94.7426345,160.03491 86.7741795,175.299069 Z M120.892005,188.10217 C130.685385,192.032153 139.975949,195.993006 148.248459,199.770647 C148.351064,199.817502 148.453965,199.864651 148.557159,199.912093 C148.660352,199.864651 148.763253,199.817502 148.865858,199.770647 C157.138368,195.993006 166.428932,192.032153 176.222313,188.10217 C168.050757,180.627305 158.579904,171.730642 148.557159,162.808367 C138.534413,171.730642 129.06356,180.627305 120.892005,188.10217 Z M167.312731,209.745833 C195.263586,225.698446 229.432604,249.505796 235.834687,254 L236.789672,254 C236.512812,252.611003 235.509448,249.361025 231.886993,244.913668 C222.037071,232.820729 202.52463,212.293437 188.205494,198.956 C181.025402,202.527168 173.993243,206.208575 167.312741,209.745839 Z M115.704481,123.376754 C119.479888,125.844296 122.966638,128.245687 125.921326,130.468081 C132.162169,135.162185 140.160803,140.769938 148.557159,146.929269 C156.953514,140.769938 164.952148,135.162185 171.192991,130.468081 C174.147679,128.245687 177.634429,125.844296 181.409836,123.376754 C172.010112,108.611802 159.035108,91.0116411 148.557159,77.284626 C138.07921,91.0116411 125.104205,108.611802 115.704481,123.376754 Z M158.346308,154.261852 C162.063312,157.117077 165.756326,160.051122 169.311661,163.033724 C176.760892,169.282948 184.230113,175.838861 191.317024,182.222341 C197.605504,179.84472 203.987158,177.520087 210.340138,175.299069 C202.371686,160.034916 193.714486,143.922021 186.704602,132.03271 C182.598864,135.008877 178.389228,138.139602 174.148482,141.397615 C168.865765,145.456137 163.56595,149.804785 158.346308,154.261852 Z M202.281402,192.227712 C214.28694,203.316555 224.294901,212.972709 229.84375,218.26462 C233.114487,221.383906 233.738602,221.288622 233.738602,221.288622 C233.738602,221.288622 226.006238,205.643844 216.041506,186.296493 C214.110221,187.089472 212.156675,187.90508 210.183157,188.74367 C207.553565,189.861039 204.916435,191.026397 202.281402,192.227712 Z M230.575434,180.578498 C240.298964,199.708025 247.636719,215.284914 247.636719,215.284914 C247.636719,215.284914 250.945841,191.535304 251.516449,175.382235 C251.542463,174.645815 251.565656,173.906217 251.586099,173.163788 C245.192221,175.269969 238.132216,177.732904 230.575434,180.578498 Z M97.397398,254 L199.716919,254 L199.876556,252.831011 C199.876556,252.831011 173.472701,232.010234 156.707703,223.785494 C154.143628,222.527585 151.418521,221.141005 148.557159,219.656695 C145.695796,221.141005 142.970689,222.527585 140.406615,223.785494 C123.641616,232.010234 97.2377608,252.831011 97.2377608,252.831011 L97.397398,254 Z M61.2796304,254 L60.3246449,254 C60.6015056,252.611003 61.6048689,249.361025 65.2273238,244.913668 C75.0772465,232.820729 94.5896871,212.293437 108.908824,198.956 C116.088916,202.527168 123.121076,206.208576 129.801579,209.745841 C101.850727,225.698449 67.6817131,249.505797 61.2796304,254 Z M45.5282161,173.163787 C51.922095,175.269968 58.9821,177.732904 66.5388832,180.578498 C56.815353,199.708025 49.4775984,215.284914 49.4775984,215.284914 C49.4775984,215.284914 46.1684759,191.535304 45.5978682,175.382235 C45.5718542,174.645817 45.5486612,173.90622 45.5282182,173.163792 Z M81.0728108,186.296493 C83.0040961,187.089472 84.9576426,187.90508 86.93116,188.74367 C89.5607521,189.861039 92.1978824,191.026397 94.8329148,192.227712 C82.8273769,203.316555 72.8194166,212.972709 67.2705672,218.26462 C63.9998297,221.383906 63.3757155,221.288622 63.3757155,221.288622 C63.3757155,221.288622 71.1080789,205.643844 81.0728108,186.296493 Z M242.635601,38 L268,38 L268,139.149856 C265.169998,124.472291 254.759152,72.58263 242.635601,38 Z M70.1654976,63.234737 C73.4494381,62.2194092 74.3325747,65.832415 74.3325747,65.832415 C74.3325747,65.832415 74.4468206,72.3685592 83.3409017,72.4458775 C92.2349828,72.5231959 91.9429258,66.8137937 91.9429258,66.8137937 C91.9429258,66.8137937 93.3979219,62.0323118 97.1448377,63.234737 C100.891754,64.4371622 100.304409,68.8702358 100.304409,68.8702358 C100.304409,68.8702358 97.8533109,83.3057227 83.3409017,83.2135857 C68.8284925,83.1214486 67.6605161,69.4180413 67.6605161,69.4180413 C67.6605161,69.4180413 66.881557,64.2500648 70.1654976,63.234737 Z M225.752242,63.234737 C222.468301,62.2194092 221.585165,65.832415 221.585165,65.832415 C221.585165,65.832415 221.470919,72.3685592 212.576838,72.4458775 C203.682757,72.5231959 203.974814,66.8137937 203.974814,66.8137937 C203.974814,66.8137937 202.519818,62.0323118 198.772902,63.234737 C195.025986,64.4371622 195.613331,68.8702358 195.613331,68.8702358 C195.613331,68.8702358 198.064429,83.3057227 212.576838,83.2135857 C227.089247,83.1214486 228.257223,69.4180413 228.257223,69.4180413 C228.257223,69.4180413 229.036183,64.2500648 225.752242,63.234737 Z" id="Combined-Shape" fill="#1B48A0"></path>
    </g>
</svg>